<?xml version="1.0" encoding="UTF-8" standalone="no"?>
<!-- Created with Inkscape (http://www.inkscape.org/) -->

<svg
   width="236.00702"
   height="126.19116"
   viewBox="0 0 236.00702 126.19116"
   version="1.1"
   id="svg1"
   xmlns="http://www.w3.org/2000/svg"
   xmlns:svg="http://www.w3.org/2000/svg">
  <defs
     id="defs1" />
  <g
     id="layer2"
     style="display:inline"
     transform="translate(-653.55328,-1171.4004)">
    <path
       id="text1-2"
       style="font-style:normal;font-variant:normal;font-weight:normal;font-stretch:normal;font-size:53.3333px;font-family:Pacifico;-inkscape-font-specification:Pacifico;text-align:center;text-anchor:middle;display:inline;fill:#000000;fill-opacity:1;stroke:none;stroke-width:1;stroke-linejoin:round;stroke-dasharray:none;stroke-opacity:1"
       d="m 869.88497,667.46185 c -0.67466,0.0349 -1.53192,0.68314 -2.57032,1.94727 -1.00471,1.22679 -2.09393,2.8674 -3.26953,4.92187 -1.17559,2.05448 -2.33836,4.35857 -3.48828,6.91016 -1.11624,2.51425 -2.1409,5.09507 -3.07226,7.74219 -0.8977,2.60977 -1.60494,5.10197 -2.12305,7.47851 -0.25463,1.168 -0.43323,2.25727 -0.54102,3.27149 -0.52161,0.91831 -1.08212,1.76498 -1.6914,2.52148 -1.05953,1.31555 -2.09324,2.32802 -3.10156,3.03711 -1.00834,0.7091 -1.8846,1.07506 -2.63086,1.09961 -0.56858,0.0187 -0.9665,-0.14579 -1.19141,-0.49414 -0.19054,-0.38505 -0.29418,-0.82671 -0.31055,-1.32422 -0.0281,-0.85287 0.0992,-1.83512 0.38282,-2.94726 0.31794,-1.14886 0.67309,-2.26364 1.06445,-3.34375 0.42689,-1.08129 0.78871,-1.99908 1.08398,-2.75586 0.32964,-0.79349 0.49179,-1.24496 0.48828,-1.35157 -0.014,-0.42643 -0.21927,-0.73909 -0.61718,-0.93945 -0.39909,-0.23589 -0.86853,-0.41641 -1.40625,-0.54101 -0.50219,-0.12578 -0.91338,-0.20155 -1.23438,-0.22657 -0.32964,0.79349 -0.75985,1.76796 -1.29101,2.92383 -0.49563,1.1547 -1.07903,2.34846 -1.75,3.58008 -0.63544,1.23045 -1.30835,2.39178 -2.01954,3.48242 -0.6768,1.05394 -1.36031,1.93033 -2.04882,2.62891 -0.65415,0.66187 -1.28261,1.00161 -1.88672,1.02148 -0.53305,0.0175 -0.91416,-0.20129 -1.14258,-0.65625 -0.22842,-0.45495 -0.386,-0.94781 -0.47461,-1.47851 -0.0531,-0.53188 -0.0832,-0.86762 -0.0879,-1.00977 -0.0362,-1.10162 0.13753,-2.33481 0.51953,-3.69922 0.38201,-1.36441 0.81999,-2.64179 1.31445,-3.83203 0.53,-1.1914 0.98133,-2.07871 1.35352,-2.66016 -0.40376,-0.37803 -0.87674,-0.68284 -1.41797,-0.91406 -0.50686,-0.26792 -0.88406,-0.39685 -1.13281,-0.38867 -0.46197,0.0152 -0.96339,0.4585 -1.50391,1.33008 -0.50498,0.87041 -1.00319,1.95315 -1.49414,3.25 -0.45541,1.29567 -0.8203,2.62543 -1.0957,3.98633 -0.2754,1.36089 -0.39602,2.53818 -0.36328,3.5332 0.0479,1.45699 0.46241,2.74091 1.24609,3.85352 0.81804,1.07589 1.83083,1.59444 3.03906,1.55468 0.88841,-0.0292 1.71464,-0.35844 2.47657,-0.98828 0.79745,-0.63101 1.53725,-1.40266 2.21875,-2.31445 0.68032,-0.94733 1.30635,-1.91127 1.8789,-2.89063 l 0.0176,0.53321 0.0176,0.5332 c 0.0613,0.78063 0.19308,1.55999 0.39648,2.33594 0.20224,0.74041 0.55956,1.33369 1.07227,1.77929 0.54941,0.47997 1.34054,0.70188 2.37109,0.66797 1.35038,-0.0444 2.72107,-0.53357 4.11328,-1.46875 1.39339,-0.89964 2.68737,-2.13414 3.88086,-3.70312 0.29978,-0.3941 0.5837,-0.80095 0.85352,-1.21875 0.003,0.13033 -0.005,0.27149 0.002,0.39844 0.0789,1.52684 0.46623,2.84206 1.16406,3.94531 0.73151,1.06591 1.93268,1.55494 3.60157,1.46875 2.05946,-0.10637 3.98308,-1.11337 5.77148,-3.02149 1.78657,-1.94361 3.36098,-4.53436 4.72461,-7.77343 l -1.3125,-0.62696 c -0.56762,1.41783 -1.26218,2.80637 -2.08203,4.16602 -0.78617,1.32231 -1.63608,2.43422 -2.55078,3.33594 -0.88103,0.86436 -1.76659,1.31938 -2.6543,1.36523 -0.67465,0.0349 -1.23987,-0.22145 -1.69531,-0.76758 -0.45728,-0.58163 -0.71718,-1.51077 -0.7832,-2.78906 -0.0367,-0.71016 -0.0254,-1.49387 0.0371,-2.35156 l 0.25977,-2.41016 c 2.1e-4,-0.003 -2.2e-4,-0.006 0,-0.01 0.0859,-1.31801 0.87109,-3.87696 0.87109,-3.87696 l 0.0391,-0.0664 c 0.48765,-1.84313 1.06212,-3.70526 1.73828,-5.58985 0.74949,-2.03247 1.52235,-3.95805 2.31836,-5.77929 0.83151,-1.8231 1.63729,-3.45008 2.41797,-4.87891 0.78067,-1.42883 1.45233,-2.54897 2.01562,-3.36133 0.59697,-0.8497 1.0382,-1.2822 1.32227,-1.29687 l 0.006,0.10742 0.002,0.0527 c 10e-4,0.712 -0.162,1.68075 -0.49024,2.90821 -0.29455,1.19009 -0.74026,2.54804 -1.33789,4.07421 -0.59762,1.52619 -1.31751,3.11227 -2.1582,4.75782 -0.80518,1.6437 -1.71822,3.27532 -2.73828,4.89453 -0.3572,0.57284 -0.73622,1.11617 -1.11328,1.66211 l -0.87891,4.20117 c 0.82368,-0.8774 1.61483,-1.81784 2.36328,-2.83789 1.36597,-1.81509 2.58547,-3.7115 3.65821,-5.68945 1.10641,-2.01531 2.03809,-3.96894 2.79492,-5.85938 0.79234,-1.89227 1.37897,-3.61337 1.76172,-5.16406 0.41642,-1.58804 0.6003,-2.8616 0.55078,-3.82031 -0.0293,-0.56814 -0.168,-1.16678 -0.41406,-1.79493 -0.21239,-0.66548 -0.49057,-1.21896 -0.83399,-1.66406 -0.34525,-0.48061 -0.74738,-0.70939 -1.20898,-0.68555 z m -29.61328,1.49805 c -1.05927,0.31086 -1.99656,0.54844 -2.81055,0.71094 -0.81487,0.12695 -1.66608,0.20057 -2.55469,0.22265 -1.63505,0.0406 -3.39706,-0.0402 -5.28711,-0.24218 -1.89004,-0.202 -3.77825,-0.27924 -5.66211,-0.23242 -2.91464,0.0724 -5.53375,0.548 -7.85937,1.42382 -2.29008,0.87494 -4.11199,2.03987 -5.46289,3.4961 -1.31536,1.45534 -1.94828,3.10676 -1.90235,4.95508 0.03,1.2085 0.40942,2.21186 1.14063,3.01171 0.73032,0.76432 1.93367,1.26888 3.61133,1.51172 -0.37665,-0.84423 -0.66204,-1.6197 -0.85743,-2.32617 -0.19626,-0.74202 -0.30604,-1.5567 -0.32812,-2.44531 -0.0309,-1.24406 0.15716,-2.29844 0.5625,-3.16211 0.44088,-0.86455 1.24281,-1.54198 2.4043,-2.0332 1.19703,-0.49211 2.87866,-0.76644 5.04687,-0.82032 0.49763,-0.0124 0.88859,-0.003 1.17383,0.0254 0.28436,-0.007 0.5339,0.005 0.74805,0.0352 -0.9449,2.05077 -1.88406,4.31371 -2.81836,6.79102 -0.89964,2.44086 -1.78007,4.95298 -2.64063,7.53515 -1.34981,0.0691 -2.60753,0.26072 -3.77344,0.57422 -1.13034,0.31262 -2.06047,0.79673 -2.79101,1.45508 -0.69588,0.62192 -1.08286,1.48531 -1.16211,2.58984 0.53052,-0.11988 1.22096,-0.22607 2.07227,-0.31836 0.88595,-0.12871 1.73697,-0.23868 2.55273,-0.33007 0.8513,-0.0923 1.47122,-0.15982 1.86133,-0.20508 -0.83738,2.08365 -1.60256,4.18315 -2.29688,6.29883 -0.69432,2.11566 -1.24986,4.10309 -1.66601,5.96289 -0.41615,1.85978 -0.6069,3.44658 -0.57422,4.76171 0.0291,1.17297 0.33764,2.14427 0.92578,2.91211 0.62369,0.76697 1.87824,1.19761 3.76562,1.29297 -0.0397,-1.5995 0.0921,-3.46982 0.39454,-5.61133 0.33711,-2.17792 0.96064,-4.98486 1.87109,-8.42187 0.0667,-0.17949 0.1968,-0.66389 0.39062,-1.45117 0.22938,-0.78817 0.49069,-1.73588 0.78321,-2.84571 0.29252,-1.10982 0.56831,-2.20198 0.82617,-3.27539 2.02515,-0.0859 3.6581,-0.17924 4.90039,-0.28125 1.27784,-0.10288 2.27116,-0.23468 2.97852,-0.39453 0.7429,-0.16072 1.3236,-0.40583 1.74218,-0.73633 0.45325,-0.36692 0.88448,-0.84061 1.29688,-1.41992 -1.81454,-0.026 -3.46951,-0.10937 -4.9668,-0.25 -1.49728,-0.14062 -3.17159,-0.25922 -5.02344,-0.35547 0.52367,-1.82689 1.03072,-3.60092 1.52149,-5.32031 0.52631,-1.72027 1.03713,-3.33372 1.5332,-4.83984 0.49607,-1.50612 0.96072,-2.83353 1.39453,-3.98242 1.56661,0.0678 3.02985,0.21053 4.38672,0.42578 1.35599,0.1797 2.45943,0.25948 3.3125,0.23828 1.03079,-0.0256 2.07066,-0.37277 3.1211,-1.03906 1.08597,-0.66719 2.45981,-1.96437 4.11914,-3.89063 z m -48.73047,1.36524 c -0.78789,-0.0415 -1.61652,-0.0378 -2.48633,0.01 -2.48517,0.13601 -4.77396,0.5995 -6.86719,1.39063 -2.09517,0.75561 -3.92908,1.72802 -5.50195,2.91796 -1.53932,1.15251 -2.73478,2.39406 -3.58789,3.72266 -0.81761,1.32666 -1.19301,2.61093 -1.125,3.85352 0.0525,0.95856 0.41584,1.75691 1.09179,2.39648 0.70952,0.60213 1.82888,0.86285 3.35547,0.7793 -0.20082,-0.41632 -0.34903,-0.83568 -0.44336,-1.25781 -0.0963,-0.45765 -0.1544,-0.88292 -0.17578,-1.27344 -0.10104,-1.84613 0.32355,-3.50599 1.27539,-4.98242 0.98541,-1.51389 2.37826,-2.73085 4.17969,-3.64844 1.79949,-0.9531 3.85446,-1.49284 6.16211,-1.61914 2.20115,-0.12047 4.177,0.19824 5.92773,0.95703 1.74881,0.72329 3.15133,1.9645 4.20899,3.72266 1.09122,1.7207 1.71566,4.01883 1.87305,6.89453 0.12241,2.23664 -0.10371,4.59936 -0.67969,7.08789 -0.57598,2.48851 -1.45723,4.94042 -2.64258,7.35547 -1.18729,2.37953 -2.61693,4.55833 -4.28906,6.53711 -1.63858,1.94132 -3.47536,3.52111 -5.50977,4.73632 -2.03246,1.25072 -4.20212,1.93816 -6.50976,2.06446 -0.46153,0.0253 -0.96163,0.0165 -1.49805,-0.0254 -0.49898,-0.008 -0.89179,-0.0575 -1.18164,-0.14844 0.39458,-2.54982 0.91696,-5.35558 1.56836,-8.41797 0.68495,-3.09984 1.43667,-6.27382 2.25586,-9.52344 0.85275,-3.28705 1.74623,-6.47089 2.68164,-9.54883 0.96897,-3.11537 1.93583,-5.94483 2.90039,-8.49023 -0.77275,-0.45623 -1.46091,-0.6678 -2.06445,-0.63477 -0.60354,0.033 -1.15875,0.27725 -1.66797,0.73243 -0.47566,0.41772 -0.89251,0.93758 -1.25,1.5625 -0.3575,0.62491 -0.64586,1.2289 -0.86328,1.81054 -0.21743,0.58164 -0.36998,1.0168 -0.46094,1.30664 -0.2116,0.68815 -0.5432,1.81144 -0.99219,3.36719 l -1.46875,5.36719 c -0.53023,2.02311 -1.07288,4.15451 -1.62695,6.39258 -0.55408,2.23805 -1.07556,4.42116 -1.56446,6.54882 -0.49083,2.09217 -0.90358,3.96663 -1.24023,5.62305 -0.30114,1.65448 -0.48114,2.90969 -0.54102,3.76758 0.87679,1.05588 1.87413,1.71337 2.99219,1.97266 1.15551,0.29284 2.35312,0.40589 3.59571,0.33789 2.59166,-0.14185 5.12163,-0.7609 7.58984,-1.85743 2.50371,-1.09845 4.82731,-2.57937 6.96875,-4.4414 2.17694,-1.86397 4.05303,-4.01476 5.62891,-6.45117 1.61136,-2.43837 2.81994,-5.06703 3.62695,-7.88868 0.84056,-2.85908 1.17882,-5.81593 1.01172,-8.86914 -0.15156,-2.76917 -0.76864,-5.24551 -1.84961,-7.42968 -1.04742,-2.22164 -2.65379,-3.93192 -4.82031,-5.13086 -1.62636,-0.92584 -3.62268,-1.45184 -5.98633,-1.57617 z m -21.93555,1.12304 c -0.67299,0.0588 -1.50712,0.73692 -2.5,2.03711 -0.96055,1.26168 -1.99182,2.94025 -3.09375,5.03516 -1.10193,2.09491 -2.18161,4.4385 -3.24023,7.02929 -1.0263,2.55229 -1.9581,5.1672 -2.79493,7.84571 -0.80448,2.63998 -1.42399,5.15734 -1.85742,7.55078 -0.14066,0.77675 -0.23735,1.50542 -0.3164,2.21289 -1.03119,2.50285 -2.09557,4.37731 -3.19532,5.54297 -1.28093,1.35769 -2.52107,2.10363 -3.72265,2.23633 -0.7775,0.0859 -1.39821,-0.0235 -1.86133,-0.33008 -0.43168,-0.34582 -0.7091,-1.0859 -0.83399,-2.2168 -0.12878,-1.16624 10e-4,-2.41333 0.39063,-3.74414 0.42105,-1.37005 0.91807,-2.69497 1.49219,-3.97461 0.60946,-1.28354 1.128,-2.41518 1.55664,-3.39258 0.46398,-0.9813 0.67183,-1.70072 0.62109,-2.16015 -0.0546,-0.49477 -0.25422,-0.84829 -0.59961,-1.06055 -0.34929,-0.2476 -0.73607,-0.34761 -1.16015,-0.30078 -0.7775,0.0859 -1.51345,0.56047 -2.20508,1.42383 -0.69554,0.82801 -1.3128,1.87857 -1.85156,3.15429 -0.53878,1.27574 -0.9971,2.63349 -1.375,4.07032 -0.0523,0.21076 -0.14622,0.65196 -0.27451,1.30108 -0.4999,1.67614 -1.27568,2.27764 -1.84268,2.95478 -0.53198,0.67098 -1.11379,1.0612 -1.74414,1.17187 -0.63036,0.11068 -1.15444,0.005 -1.57227,-0.31836 -0.38281,-0.32988 -0.6968,-0.78082 -0.9414,-1.35156 -0.21574,-0.61191 -0.37595,-1.21521 -0.48047,-1.81055 -0.19676,-1.12063 -0.25483,-2.06753 -0.17383,-2.83984 0.11602,-0.77846 0.25139,-1.4512 0.4043,-2.01953 0.062,-0.26359 0.15534,-0.55238 0.28125,-0.86328 0.11976,-0.34593 0.14937,-0.69277 0.0879,-1.04297 -0.0676,-0.38522 -0.32682,-0.82735 -0.77539,-1.32617 -0.41356,-0.50498 -1.0581,-0.68106 -1.9336,-0.52735 -0.5253,0.0922 -0.98152,0.37079 -1.36914,0.83594 -0.35875,0.42398 -0.59484,1.13418 -0.70898,2.12891 -0.0791,0.98856 0.0416,2.39185 0.36132,4.21289 -0.35125,1.28904 -0.77232,2.59065 -1.26367,3.90429 -0.46247,1.27248 -0.9758,2.46455 -1.53906,3.57422 -0.52824,1.10353 -1.07196,2.0105 -1.63281,2.72266 -0.52583,0.70601 -1.03512,1.10337 -1.52539,1.18945 -0.42024,0.0738 -0.72321,-0.10811 -0.90821,-0.54492 -0.19114,-0.47183 -0.36024,-1.12828 -0.50781,-1.96875 -0.20905,-1.19068 -0.36114,-2.37278 -0.45898,-3.54688 -0.104,-1.20912 -0.1589,-2.33649 -0.16211,-3.38281 -0.009,-1.08134 0.0264,-2.00894 0.10742,-2.78125 0.0227,-0.0762 0.0472,-0.24256 0.0742,-0.5 0.0208,-0.29245 0.0296,-0.45717 0.0234,-0.49219 -0.0861,-0.49027 -0.34323,-0.82445 -0.77149,-1.00195 -0.39939,-0.21867 -0.93229,-0.26917 -1.59765,-0.15234 -0.31518,0.0553 -0.58053,0.19201 -0.79493,0.41015 -0.17937,0.21199 -0.3149,0.66883 -0.4082,1.3711 -0.0933,0.70227 -0.16601,1.83529 -0.2168,3.39648 -0.50604,1.64112 -1.06995,3.25619 -1.69336,4.8457 -0.6234,1.58953 -1.29051,2.93396 -2,4.03321 -0.67446,1.0931 -1.39754,1.70653 -2.16796,1.84179 -0.49028,0.0861 -0.89397,-0.0583 -1.2129,-0.43554 -0.31891,-0.3772 -0.55677,-0.80523 -0.71289,-1.28321 -0.12724,-0.51914 -0.2092,-0.88363 -0.24609,-1.09375 -0.19061,-1.0856 -0.20655,-2.31047 -0.0488,-3.67382 0.18659,-1.40454 0.44128,-2.73064 0.76367,-3.97852 0.35742,-1.25403 0.67801,-2.19432 0.96485,-2.82226 -0.22001,-0.43067 -0.66811,-0.73091 -1.34766,-0.9004 -0.64452,-0.17563 -1.0908,-0.24225 -1.33594,-0.19921 -0.42023,0.0738 -0.83529,0.58067 -1.24804,1.51953 -0.37773,0.9327 -0.71949,2.07479 -1.02344,3.42773 -0.26893,1.3468 -0.46157,2.71714 -0.57813,4.10938 -0.0815,1.38608 -0.0338,2.58598 0.14454,3.60156 0.26439,1.50585 0.87684,2.73325 1.83789,3.68359 0.95489,0.91533 2.02807,1.2696 3.21875,1.06055 1.08561,-0.19061 2.04591,-0.79205 2.8789,-1.80469 0.83299,-1.01263 1.57271,-2.24391 2.22071,-3.69336 0.64799,-1.44945 1.22284,-2.90536 1.72461,-4.36523 0.0511,0.49642 0.12464,1.11586 0.21875,1.85742 0.12912,0.73542 0.21319,1.3158 0.25195,1.74219 0.32213,1.42351 0.7646,2.61065 1.32812,3.55859 0.6047,0.97681 1.50269,1.35944 2.69336,1.15039 1.15566,-0.2029 2.22549,-0.89466 3.20899,-2.07812 0.98964,-1.14844 1.87952,-2.55175 2.67187,-4.20703 0.82123,-1.69646 1.53733,-3.37364 2.14844,-5.03321 0.67046,1.14576 1.48252,2.06852 2.43555,2.76758 0.95302,0.69906 2.00645,0.94704 3.16211,0.74414 0.91051,-0.15986 1.79837,-0.65856 2.66211,-1.49609 0.19008,-0.19341 0.36702,-0.42327 0.5371,-0.66992 -0.0617,0.84474 -0.0817,1.60885 -0.0156,2.20703 0.1444,1.3076 0.65619,2.37795 1.53516,3.21093 0.87896,0.833 2.0954,1.16391 3.65039,0.99219 2.19111,-0.24197 4.14612,-1.3349 5.86328,-3.27734 0.92015,-1.04087 1.71089,-2.28388 2.39453,-3.69922 0.008,0.12641 0.007,0.26362 0.0176,0.38672 0.133,1.52309 0.56814,2.8226 1.30468,3.90039 0.76888,1.03927 1.98562,1.48717 3.6504,1.3418 2.05439,-0.1794 3.9406,-1.25423 5.66015,-3.22461 1.71646,-2.00582 3.19946,-4.65207 4.44727,-7.9375 l -1.33594,-0.58008 c -0.51694,1.43708 -1.16057,2.85039 -1.93164,4.23828 -0.73875,1.34938 -1.54952,2.49022 -2.43164,3.42383 -0.8498,0.89509 -1.718,1.38165 -2.60352,1.45898 -0.67299,0.0588 -1.24616,-0.17546 -1.7207,-0.70508 -0.47763,-0.56503 -0.77146,-1.48658 -0.88281,-2.76171 -0.0619,-0.70842 -0.0769,-1.49219 -0.0449,-2.35157 l 0.11914,-1.67187 c -0.005,-0.0212 -0.007,-0.0449 -0.008,-0.0723 -0.005,-0.19516 0.0244,-0.48464 0.0723,-0.82226 l 0.01,-0.12696 c 0.004,-0.004 0.008,-0.008 0.0117,-0.0117 0.20645,-1.36301 0.68246,-3.34992 0.70118,-3.42773 -0.0155,0.0202 -0.0294,0.0424 -0.0449,0.0625 0.43513,-1.9653 0.97459,-3.95728 1.61914,-5.97656 0.67689,-2.0578 1.38047,-4.01101 2.11133,-5.85938 0.76629,-1.85145 1.51468,-3.5053 2.24414,-4.96093 0.72947,-1.45565 1.36043,-2.59981 1.89453,-3.43165 0.56644,-0.87034 0.99204,-1.31705 1.27539,-1.34179 l 0.01,0.10547 0.004,0.0527 c 0.0264,0.71151 -0.10226,1.68745 -0.38672,2.92578 -0.25214,1.19982 -0.65028,2.5727 -1.19336,4.11914 -0.54308,1.54644 -1.20458,3.15573 -1.98633,4.83008 -0.74633,1.67126 -1.60055,3.33388 -2.5625,4.98828 -0.26508,0.46077 -0.55197,0.89535 -0.83008,1.33985 l -0.96289,4.60351 c 0.79546,-0.90937 1.55474,-1.88123 2.26953,-2.93164 1.30069,-1.86243 2.45127,-3.80161 3.45313,-5.81641 1.03418,-2.05329 1.89668,-4.03897 2.58594,-5.95507 0.72466,-1.91921 1.25066,-3.65936 1.57812,-5.22266 0.35979,-1.60181 0.49758,-2.88153 0.41406,-3.83789 -0.0495,-0.56673 -0.20836,-1.16028 -0.47656,-1.7793 -0.23587,-0.65753 -0.53358,-1.20213 -0.89258,-1.63476 -0.36209,-0.46805 -0.77195,-0.68084 -1.23242,-0.64063 z m -17.54687,12.36524 c -0.98954,0.10927 -1.90921,0.51453 -2.76172,1.21679 -0.85251,0.70227 -1.23234,1.478 -1.13868,2.32618 0.0781,0.7068 0.40157,1.20708 0.97071,1.50195 0.60057,0.25562 1.23673,0.34564 1.9082,0.27148 0.9542,-0.10537 1.80038,-0.53759 2.53906,-1.29883 0.73478,-0.79656 1.06048,-1.56644 0.97852,-2.30859 -0.082,-0.74215 -0.36677,-1.22895 -0.85742,-1.46094 -0.45531,-0.23589 -1.00255,-0.31829 -1.63867,-0.24804 z"
       transform="translate(-55.316608,503.94049)" />
    <path
       id="text2-1"
       style="font-style:normal;font-variant:normal;font-weight:bold;font-stretch:normal;font-size:26.6667px;font-family:'Dancing Script';-inkscape-font-specification:'Dancing Script Bold';text-align:center;text-anchor:middle;display:inline;fill:#000000;fill-opacity:1;stroke:none;stroke-width:1;stroke-linecap:butt;stroke-linejoin:round;stroke-dasharray:none;stroke-opacity:1"
       d="m 863.63867,1268.2891 c -0.60444,1.1911 -1.21762,2.4079 -1.83984,3.6523 -0.62222,1.2267 -1.12842,2.2238 -1.51953,2.9883 -0.37334,0.7467 -0.76494,1.5183 -1.17383,2.3183 -0.39111,0.7823 -0.92405,1.8234 -1.59961,3.1211 -0.65778,1.2978 -1.24616,2.2835 -1.76172,2.959 -1.40444,1.8667 -2.541,2.8008 -3.41211,2.8008 -0.42667,0 -0.77435,-0.1433 -1.04101,-0.4277 -0.26667,-0.3023 -0.39844,-0.7015 -0.39844,-1.1992 0,-1.1734 0.65714,-2.3195 1.97265,-3.4395 1.33334,-1.1378 2.76408,-1.8044 4.29297,-2 l -0.0801,-0.9336 c -1.17329,0 -2.43603,0.3992 -3.7871,1.1992 -1.35112,0.7822 -2.48767,1.7966 -3.41211,3.041 -0.92445,1.2445 -1.38672,2.4441 -1.38672,3.5997 0,0.7284 0.20439,1.3077 0.61328,1.7343 0.40889,0.4267 0.95901,0.6387 1.65234,0.6387 2.00889,0 4.06238,-1.83 6.16016,-5.4922 -0.39111,1.4756 -0.58594,2.5682 -0.58594,3.2793 0,1.2089 0.51576,1.8125 1.54688,1.8125 0.53333,0 1.08345,-0.212 1.65234,-0.6387 0.56889,-0.4444 0.97006,-0.9258 1.20117,-1.4414 l -0.48047,-0.4531 c -0.40889,0.4089 -0.77375,0.6133 -1.09375,0.6133 -0.30222,0 -0.52379,-0.08 -0.66601,-0.2403 -0.14222,-0.1773 -0.21289,-0.4089 -0.21289,-0.6933 0,-1.12 0.4527,-2.7991 1.35937,-5.0391 1.36889,-3.4133 3.03077,-6.9415 4.98633,-10.5859 l 0.37305,-0.6934 z m -194.66797,0.4004 c -1.06666,1.6177 -2.4,4.3818 -4,8.2929 -1.6,3.9111 -2.66588,7.2273 -3.19922,9.9473 l 1.62696,0.666 c 0.81778,-2.1156 1.76907,-3.8309 2.85351,-5.1465 1.10223,-1.3155 2.06113,-1.9746 2.87891,-1.9746 0.37333,0 0.67514,0.1261 0.90625,0.375 0.24889,0.2311 0.375,0.5329 0.375,0.9063 0,1.1733 -0.4451,2.3633 -1.33399,3.5722 -0.88884,1.2089 -1.87649,1.8145 -2.96093,1.8145 -0.16,0 -0.38157,-0.036 -0.66602,-0.1074 l -0.64062,1.1738 c 0.42666,0.1778 0.88132,0.2656 1.36133,0.2656 1.59996,0 3.09384,-0.9054 4.48046,-2.7187 1.38667,-1.8312 2.07813,-3.5733 2.07813,-5.2266 0,-0.64 -0.19483,-1.1558 -0.58594,-1.5469 -0.37333,-0.4089 -0.85279,-0.6133 -1.43945,-0.6133 -0.56889,0 -1.18207,0.1681 -1.83985,0.5059 -0.63996,0.32 -1.3869,0.916 -2.24023,1.7871 -0.85333,0.8711 -1.64416,1.9466 -2.37305,3.2266 0.23111,-1.1556 1.00476,-3.3504 2.32032,-6.586 1.33329,-3.2355 2.58643,-5.9481 3.75976,-8.1347 z m 35.22657,2.2929 c -1.90223,0 -3.45713,0.392 -4.66602,1.1738 -1.20889,0.7823 -1.8125,1.8214 -1.8125,3.1192 0,1.28 0.79844,2.4261 2.39844,3.4394 1.33293,0.8443 2.75236,1.3158 4.24609,1.4571 0.0736,-0.3448 0.15643,-0.7684 0.2461,-1.2852 -1.17395,-0.2427 -2.15354,-0.6578 -2.91797,-1.2637 -0.92445,-0.7644 -1.38672,-1.6278 -1.38672,-2.5878 0,-0.9778 0.33811,-1.7152 1.01367,-2.2129 0.67556,-0.4978 1.6001,-0.7461 2.77344,-0.7461 2.48885,0 4.61308,0.9054 6.37304,2.7187 1.76,1.8134 2.64063,4.0101 2.64063,6.5879 0,1.4933 -0.34768,2.6834 -1.04102,3.5723 -0.69333,0.8711 -1.63506,1.3066 -2.82617,1.3066 -1.17333,0 -2.64995,-0.071 -4.42773,-0.2129 0.74666,-1.6355 1.46682,-3.5725 2.16015,-5.8125 1.61778,-0.2489 2.60538,-0.4361 2.96094,-0.5605 l -0.13281,-0.8809 c -1.51111,0.1778 -2.33825,0.2676 -2.48047,0.2676 0.46222,-1.8133 0.69336,-3.2708 0.69336,-4.373 l -1.59961,-0.1602 c -0.0889,0.6756 -0.40983,2.177 -0.96094,4.5059 -0.0371,0.3771 -0.0373,0.4727 -0.18555,1.2011 -0.51551,2.08 -1.27202,4.1144 -2.26757,6.1055 -0.30223,0.5867 -0.45313,0.9515 -0.45313,1.0937 0,0.3912 0.25788,0.586 0.77344,0.586 h 1.25391 c 0.72884,0 1.70497,0.01 2.93164,0.027 2.29329,0.036 4.1883,-0.6582 5.68164,-2.08 1.49333,-1.4223 2.23828,-3.3592 2.23828,-5.8126 0,-2.4529 -1.1022,-4.5966 -3.30664,-6.4277 -2.18667,-1.8311 -4.82663,-2.7461 -7.91992,-2.7461 z m 91.04101,0.1856 c -0.16,0 -0.48855,0.08 -0.98633,0.2402 -0.48,0.1422 -0.88117,0.2148 -1.20117,0.2148 l -6.31836,-0.1875 c -2.52444,0 -4.54357,0.5062 -6.05469,1.5196 -1.51107,1.0133 -2.26562,2.2588 -2.26562,3.7344 0,0.6755 0.23114,1.2352 0.69336,1.6796 0.46222,0.4445 1.04869,0.6661 1.75976,0.6661 1.6,0 3.07467,-0.6743 4.42579,-2.0254 l -0.5586,-0.6934 c -0.53333,0.2667 -0.98799,0.4615 -1.36133,0.5859 -0.10666,0.036 -0.29388,0.1063 -0.56054,0.2129 -0.24889,0.089 -0.46094,0.152 -0.63867,0.1875 -0.16001,0.018 -0.40832,0.025 -0.7461,0.025 -0.33778,0 -0.67589,-0.1317 -1.01367,-0.3984 -0.33778,-0.2845 -0.50781,-0.6321 -0.50781,-1.041 0,-0.7645 0.43553,-1.3776 1.30664,-1.8399 0.88889,-0.4622 2.23179,-0.6933 4.02734,-0.6933 l 4.29297,0.1601 c -1.45778,0.9245 -2.72806,3.0926 -3.8125,6.5059 -0.11566,0.3609 -0.11909,0.3586 -0.42773,1.3066 -0.56889,1.8489 -1.33297,3.5204 -2.29297,5.0137 -0.56889,0.9067 -1.21838,1.6173 -1.94727,2.1328 -0.72889,0.5333 -1.40317,0.8008 -2.02539,0.8008 -0.62222,0 -1.13037,-0.1777 -1.52148,-0.5332 -0.37334,-0.3556 -0.5586,-0.8083 -0.5586,-1.3594 0,-1.4044 0.83475,-2.7206 2.50586,-3.9473 1.43255,-1.0404 3.06179,-1.6809 4.86524,-1.9667 l 0.54297,-1.3731 c -2.81605,0.201 -5.23788,0.9559 -7.22071,2.3262 -2.18667,1.4933 -3.28125,3.1552 -3.28125,4.9863 0,1.1378 0.35725,2.0551 1.06836,2.748 0.71111,0.6934 1.64327,1.0391 2.79883,1.0391 1.88444,0 3.67053,-0.8978 5.35937,-2.6933 1.68889,-1.7956 3.03179,-4.214 4.02735,-7.254 l 2.42773,0.08 c 0.53334,0 0.93255,-0.01 1.19922,-0.025 l 0.0527,-1.2539 c -0.42667,-0.053 -1.5193,-0.08 -3.2793,-0.08 1.03111,-3.5556 2.08938,-5.7065 3.17383,-6.4532 0.8,0 1.71498,-0.1165 2.74609,-0.3476 0.55111,-0.1067 0.99625,-0.2843 1.33398,-0.5332 0.33778,-0.2667 0.50586,-0.5857 0.50586,-0.959 0,-0.1422 -0.0535,-0.2588 -0.16015,-0.3477 -0.0889,-0.1066 -0.21305,-0.1601 -0.37305,-0.1601 z m -73.4668,2.748 c -0.39111,0 -0.71204,0.1509 -0.96093,0.4531 -0.24889,0.3023 -0.37305,0.6747 -0.37305,1.1192 0,0.8 0.49858,1.2012 1.49414,1.2012 0.35556,0 0.64018,-0.1605 0.85352,-0.4805 0.21333,-0.32 0.32031,-0.6677 0.32031,-1.041 0,-0.3734 -0.12416,-0.6752 -0.37305,-0.9063 -0.24889,-0.2311 -0.56982,-0.3457 -0.96094,-0.3457 z m 17.41407,3.4121 c -0.53334,0.8534 -1.12172,2.2669 -1.76172,4.2403 -0.62222,1.9555 -1.10172,3.9651 -1.43945,6.0273 l 1.5996,0.5605 c 1.13778,-2.5951 2.16935,-4.5783 3.09375,-5.9472 0.92445,-1.3867 1.83943,-2.0801 2.7461,-2.0801 0.28444,0 0.52515,0.107 0.7207,0.3203 0.21333,0.1956 0.32031,0.4171 0.32031,0.666 0,0.5689 -0.31137,1.4576 -0.93359,2.666 -0.60444,1.1912 -0.90625,2.0279 -0.90625,2.5079 0,0.48 0.16047,0.8792 0.48047,1.1992 0.32,0.32 0.75553,0.4804 1.30664,0.4805 0.55111,-1e-4 1.16429,-0.2675 1.83984,-0.8008 0.69334,-0.5334 1.23585,-1.1905 1.62696,-1.9727 l -0.56055,-0.4258 c -0.0711,0.053 -0.18766,0.1584 -0.34766,0.3184 -0.14222,0.1422 -0.26638,0.2588 -0.37304,0.3476 -0.10667,0.089 -0.23083,0.1863 -0.37305,0.293 -0.12445,0.1067 -0.23904,0.1869 -0.3457,0.2403 -0.10667,0.053 -0.24039,0.08 -0.40039,0.08 -0.16,0 -0.33004,-0.08 -0.50782,-0.2402 -0.17777,-0.1778 -0.26562,-0.4185 -0.26562,-0.7207 0,-0.3022 0.27506,-1.0472 0.82617,-2.2383 0.56889,-1.2089 0.90701,-1.9749 1.01367,-2.2949 0.10667,-0.3378 0.16016,-0.7103 0.16016,-1.1192 0,-0.4088 -0.1509,-0.7641 -0.45313,-1.0664 -0.28444,-0.3022 -0.6493,-0.4531 -1.09375,-0.4531 -2.06218,0 -4.32014,2.0974 -6.77343,6.293 0.7644,-3.0933 1.3948,-5.271 1.89257,-6.5332 z m 75.19922,0 c -0.53334,0.8534 -1.11977,2.2669 -1.75977,4.2403 -0.62222,1.9555 -1.10168,3.9651 -1.43945,6.0273 l 1.59961,0.5605 c 1.13777,-2.5951 2.1693,-4.5783 3.09375,-5.9472 0.92444,-1.3867 1.83942,-2.0801 2.74609,-2.0801 0.28444,0 0.52515,0.107 0.7207,0.3203 0.21334,0.1956 0.31836,0.4171 0.31836,0.666 0,0.5689 -0.30942,1.4576 -0.93164,2.666 -0.60444,1.1912 -0.9082,2.0279 -0.9082,2.5079 0,0.48 0.16047,0.8792 0.48047,1.1992 0.32,0.32 0.75553,0.4804 1.30664,0.4805 0.55111,-1e-4 1.16429,-0.2675 1.83984,-0.8008 0.69334,-0.5334 1.23588,-1.1905 1.62695,-1.9727 l -0.56054,-0.4258 c -0.0711,0.053 -0.18574,0.1584 -0.3457,0.3184 -0.14223,0.1422 -0.26639,0.2588 -0.37305,0.3476 -0.10667,0.089 -0.23083,0.1863 -0.37305,0.293 -0.12444,0.1067 -0.24099,0.1869 -0.34766,0.2403 -0.10662,0.053 -0.24039,0.08 -0.40039,0.08 -0.16,0 -0.32812,-0.08 -0.50585,-0.2402 -0.17778,-0.1778 -0.26758,-0.4185 -0.26758,-0.7207 0,-0.3022 0.27701,-1.0472 0.82812,-2.2383 0.56889,-1.2089 0.90505,-1.9749 1.01172,-2.2949 0.10667,-0.3378 0.16016,-0.7103 0.16016,-1.1192 0,-0.4088 -0.15091,-0.7641 -0.45313,-1.0664 -0.28444,-0.3022 -0.6493,-0.4531 -1.09375,-0.4531 -2.06222,0 -4.3201,2.0974 -6.77344,6.293 0.76445,-3.0933 1.39676,-5.271 1.89454,-6.5332 z m 24.88085,0 c -0.53329,0.8534 -1.11976,2.2669 -1.75976,4.2403 -0.62222,1.9555 -1.10363,3.9651 -1.44141,6.0273 l 1.59961,0.5605 c 1.13778,-2.5951 2.16931,-4.5783 3.09375,-5.9472 0.92445,-1.3867 1.84138,-2.0801 2.74805,-2.0801 0.28444,0 0.52319,0.107 0.71875,0.3203 0.21333,0.1956 0.32031,0.4171 0.32031,0.666 0,0.5689 -0.31137,1.4576 -0.93359,2.666 -0.60445,1.1912 -0.90625,2.0279 -0.90625,2.5079 0,0.48 0.16047,0.8792 0.48047,1.1992 0.32,0.32 0.75553,0.4804 1.30664,0.4805 0.55111,-1e-4 1.16429,-0.2675 1.83984,-0.8008 0.69333,-0.5334 1.23584,-1.1905 1.62695,-1.9727 l -0.56054,-0.4258 c -0.0711,0.053 -0.18766,0.1584 -0.34766,0.3184 -0.14222,0.1422 -0.26638,0.2588 -0.37305,0.3476 -0.10666,0.089 -0.23082,0.1863 -0.37304,0.293 -0.12445,0.1067 -0.23904,0.1869 -0.34571,0.2403 -0.10666,0.053 -0.24039,0.08 -0.40039,0.08 -0.16,0 -0.33003,-0.08 -0.50781,-0.2402 -0.17778,-0.1778 -0.26562,-0.4185 -0.26562,-0.7207 0,-0.3022 0.27506,-1.0472 0.82617,-2.2383 0.56889,-1.2089 0.907,-1.9749 1.01367,-2.2949 0.10667,-0.3378 0.16016,-0.7103 0.16016,-1.1192 0,-0.4088 -0.15091,-0.7641 -0.45313,-1.0664 -0.28444,-0.3022 -0.6493,-0.4531 -1.09375,-0.4531 -2.06222,0 -4.3201,2.0974 -6.77344,6.293 0.76445,-3.0933 1.3948,-5.271 1.89258,-6.5332 z m 40.16016,0.027 c -1.19111,0 -2.16154,0.2311 -2.9082,0.6933 -0.72889,0.4623 -1.0918,1.1289 -1.0918,2 0,0.48 0.38204,1.3148 1.14649,2.5059 0.78218,1.1911 1.17187,2.0106 1.17187,2.4551 0,0.4266 -0.1509,0.7895 -0.45312,1.0918 -0.30223,0.2844 -0.65752,0.4277 -1.06641,0.4277 -0.40889,0 -0.78136,-0.1509 -1.11914,-0.4531 -0.14222,-0.1067 -0.35618,-0.2939 -0.64063,-0.5606 -0.28444,-0.2844 -0.54994,-0.5251 -0.79882,-0.7207 l -1.01368,0.7207 c 0.90667,1.6534 2.10628,2.4805 3.59961,2.4805 1.08445,0 1.94594,-0.2675 2.58594,-0.8008 0.65778,-0.5511 0.98633,-1.3056 0.98633,-2.2656 0,-0.4089 -0.36291,-1.2189 -1.0918,-2.4277 -0.71111,-1.2089 -1.0664,-1.9367 -1.0664,-2.1856 0,-1.1733 0.88823,-1.7617 2.66601,-1.7617 0.48,0 0.87161,0.019 1.17383,0.055 l 0.23828,-1.041 c -0.33778,-0.1423 -1.10947,-0.2129 -2.31836,-0.2129 z M 676.625,1277.568 c -0.69333,0.9955 -1.32564,2.2314 -1.89453,3.707 -0.55111,1.4578 -0.82617,2.5963 -0.82617,3.4141 0,0.8177 0.19678,1.4385 0.58789,1.8652 0.40889,0.4267 0.94183,0.6406 1.59961,0.6406 0.67555,0 1.31547,-0.1413 1.91992,-0.4258 1.22667,-0.5333 2.60392,-1.9469 4.13281,-4.2402 l -1.38086,4.8594 -0.22851,1.0078 c 0.004,0 0.006,0 0.01,-0.01 -0.019,0.092 -0.045,0.1518 -0.0645,0.2422 l -0.16797,0.7422 -0.0293,0.014 c -0.91217,3.7519 -2.16411,5.7226 -3.79101,5.7226 -0.37334,0 -0.68471,-0.1337 -0.9336,-0.4004 -0.24889,-0.2666 -0.37304,-0.6124 -0.37304,-1.039 0,-1.1378 0.79847,-2.3107 2.39843,-3.5196 0.66759,-0.5143 1.44241,-0.9723 2.27344,-1.4003 l 0.22266,-0.9043 c -4.7206,1.8361 -7.10938,4.2191 -7.10938,7.1621 0,0.8 0.22353,1.4303 0.66797,1.8925 0.44445,0.4623 1.03849,0.6934 1.78516,0.6934 1.51111,0 2.71267,-0.5864 3.60156,-1.7598 0.44445,-0.5866 0.82648,-1.1826 1.14649,-1.7871 0.33773,-0.5866 0.66632,-1.4577 0.98632,-2.6133 0.33778,-1.1377 0.61284,-2.2938 0.82618,-3.4667 1.58218,-0.5867 2.40935,-0.9057 2.48046,-0.959 l -0.0801,-0.6934 -2.16016,0.8516 c 0.17778,-0.8178 0.50633,-1.9907 0.98633,-3.5196 0.49778,-1.5466 0.81871,-2.6125 0.96094,-3.1992 l -0.96094,-0.5605 c -1.54667,2.08 -2.69279,3.4764 -3.43946,4.1875 -0.72884,0.6933 -1.38599,1.039 -1.97265,1.039 -0.58667,0 -1.03176,-0.1337 -1.33399,-0.4004 -0.30222,-0.2666 -0.45312,-0.79 -0.45312,-1.5722 0,-0.7822 0.3916,-1.9819 1.17383,-3.5996 0.44444,-0.8889 0.69276,-1.3608 0.74609,-1.4141 z m 129.19922,0.1074 -1.49219,0.4004 c 0,2.1333 -0.2407,3.8926 -0.7207,5.2793 -0.14222,0.3911 -0.70191,1.6977 -1.67969,3.9199 l 1.51953,0.666 c 0.33778,-0.5867 0.8268,-1.5819 1.4668,-2.9863 0.65778,-1.4222 1.22703,-2.471 1.70703,-3.1465 0.48,-0.6756 0.9862,-1.0137 1.51953,-1.0137 0.53333,0 0.80078,0.2407 0.80078,0.7207 0,0.2489 -0.12416,0.6481 -0.37304,1.1992 l 0.63867,0.5079 c 1.10222,-1.0667 1.65429,-2.0811 1.65429,-3.0411 0,-0.48 -0.14329,-0.8696 -0.42773,-1.1718 -0.28444,-0.3023 -0.64735,-0.4551 -1.0918,-0.4551 -1.22666,0 -2.73764,1.6279 -4.5332,4.8808 0.40889,-1.4222 0.66482,-2.4441 0.77148,-3.0664 0.10667,-0.64 0.18691,-1.5378 0.24024,-2.6933 z m -6.24024,0.207 v 0 c -1.77773,0 -3.53707,0.7908 -5.27929,2.373 -1.72445,1.5822 -2.58594,3.1906 -2.58594,4.8262 0,0.8711 0.27506,1.5741 0.82617,2.1074 0.55111,0.5333 1.28083,0.8008 2.1875,0.8008 0.90667,0 1.83883,-0.2503 2.79883,-0.7481 0.96,-0.5155 1.71647,-1.1554 2.26758,-1.9199 l -0.61328,-0.4785 c -1.31556,0.8711 -2.35665,1.3066 -3.1211,1.3066 -0.35555,1e-4 -0.70128,-0.1165 -1.03906,-0.3476 -0.32502,-0.2224 -0.56018,-0.5702 -0.72461,-0.918 -0.13601,-0.3278 -0.15729,-0.5839 -0.1543,-0.8437 h -0.002 c 0.14222,-1.12 0.6943,-2.1955 1.6543,-3.2266 0.97778,-1.0489 1.88319,-1.5742 2.71875,-1.5742 0.23111,0 0.4355,0.09 0.61328,0.2676 0.17778,0.1778 0.26758,0.3821 0.26758,0.6132 0,0.6222 -0.51577,1.3062 -1.54688,2.0528 -0.83803,0.6069 -1.84685,1.1101 -2.95508,1.5527 0.0409,0.2018 0.1377,0.5051 0.22852,0.7559 1.79831,-0.7082 3.3012,-1.4697 4.35352,-2.3086 1.2444,-0.9777 1.86718,-1.9463 1.86718,-2.9063 0,-0.9245 -0.58838,-1.3867 -1.76172,-1.3867 z m 71.78711,0 c -1.77773,0 -3.53707,0.7908 -5.27929,2.373 -1.72445,1.5822 -2.58594,3.1906 -2.58594,4.8262 0,0.8711 0.27506,1.5741 0.82617,2.1074 0.55111,0.5333 1.27888,0.8008 2.18555,0.8008 0.90667,0 1.84078,-0.2503 2.80078,-0.7481 0.96,-0.5155 1.71647,-1.1554 2.26758,-1.9199 l -0.61328,-0.4785 c -1.31556,0.8711 -2.35665,1.3066 -3.1211,1.3066 -0.35555,1e-4 -0.72272,-0.088 -1.03906,-0.3476 -0.86759,-0.7122 -0.84409,-1.0199 -0.88086,-1.7598 -0.056,-1.1276 0.6943,-2.1954 1.6543,-3.2265 0.97778,-1.0489 1.88319,-1.5743 2.71875,-1.5743 0.23111,0 0.4355,0.09 0.61328,0.2676 0.17778,0.1778 0.26758,0.3822 0.26758,0.6133 0,0.6222 -0.51577,1.3061 -1.54688,2.0527 -0.78309,0.5671 -1.72325,1.0394 -2.74219,1.4629 0.0363,0.2217 0.10518,0.4727 0.21094,0.7617 1.70183,-0.6854 3.14619,-1.4178 4.1582,-2.2246 1.24445,-0.9777 1.86524,-1.9462 1.86524,-2.9062 0,-0.9245 -0.58643,-1.3867 -1.75977,-1.3867 z m -138.05273,0.1074 c -1.49333,0.018 -2.98714,0.4074 -4.48047,1.1719 -1.49333,0.7644 -2.71969,1.7618 -3.67969,2.9882 -0.96,1.2089 -1.43945,2.4353 -1.43945,3.6797 0,0.6756 0.16808,1.2085 0.50586,1.5996 0.35556,0.3734 0.87136,0.5606 1.54687,0.5606 0.67556,0 1.35941,-0.17 2.05274,-0.5078 0.71111,-0.3378 1.54781,-0.9949 2.50781,-1.9727 l 0.98633,-1.0137 c -0.26667,0.7111 -0.40039,1.3243 -0.40039,1.8399 0,1.1022 0.52533,1.6543 1.57422,1.6543 0.55111,0 1.15472,-0.2407 1.8125,-0.7207 0.67555,-0.48 1.13783,-0.9862 1.38672,-1.5195 l -0.61329,-0.4532 c -0.0889,0.071 -0.20348,0.159 -0.3457,0.2657 l -0.32031,0.2402 c -0.0533,0.053 -0.12596,0.1067 -0.21484,0.1601 -0.0711,0.053 -0.13222,0.097 -0.18555,0.1329 l -0.16016,0.055 c -0.0533,0.018 -0.16988,0.025 -0.34765,0.025 -0.16,0 -0.32809,-0.08 -0.50586,-0.2402 -0.16,-0.1778 -0.24024,-0.3898 -0.24024,-0.6387 0,-0.6044 0.55208,-2.018 1.6543,-4.2402 l -1.12109,-0.668 c -0.78223,1.5111 -1.76026,2.8273 -2.9336,3.9473 -1.17333,1.12 -2.15898,1.6797 -2.95898,1.6797 -0.85334,0 -1.28125,-0.5234 -1.28125,-1.5723 0,-1.0666 0.61517,-2.1345 1.84179,-3.2012 1.24445,-1.0666 2.67519,-1.7772 4.29297,-2.1328 l 1.11914,-0.2402 z m 24.87891,0 c -1.49334,0.018 -2.98519,0.4074 -4.47852,1.1719 -1.49333,0.7644 -2.71969,1.7618 -3.67969,2.9882 -0.96,1.2089 -1.4414,2.4353 -1.4414,3.6797 0,0.6756 0.17003,1.2085 0.50781,1.5996 0.35555,0.3734 0.87132,0.5606 1.54687,0.5606 0.67556,0 1.3594,-0.17 2.05274,-0.5078 0.71111,-0.3378 1.54586,-0.9949 2.50586,-1.9727 l 0.98633,-1.0137 c -0.26667,0.7111 -0.39844,1.3243 -0.39844,1.8399 0,1.1022 0.52337,1.6543 1.57226,1.6543 0.55112,0 1.15668,-0.2407 1.81446,-0.7207 0.67555,-0.48 1.13783,-0.9862 1.38672,-1.5195 l -0.61329,-0.4532 c -0.0889,0.071 -0.20543,0.159 -0.34765,0.2657 l -0.32031,0.2402 c -0.0533,0.053 -0.12401,0.1067 -0.2129,0.1601 -0.0711,0.053 -0.13416,0.097 -0.1875,0.1329 l -0.1582,0.055 c -0.0533,0.018 -0.16988,0.025 -0.34765,0.025 -0.16,0 -0.32809,-0.08 -0.50586,-0.2402 -0.16,-0.1778 -0.24024,-0.3898 -0.24024,-0.6387 0,-0.6044 0.55012,-2.018 1.65235,-4.2402 l -1.11914,-0.668 c -0.78223,1.5111 -1.76027,2.8273 -2.9336,3.9473 -1.17333,1.12 -2.16094,1.6797 -2.96094,1.6797 -0.85333,0 -1.27929,-0.5234 -1.27929,-1.5723 0,-1.0666 0.61317,-2.1345 1.83984,-3.2012 1.24445,-1.0666 2.67519,-1.7772 4.29297,-2.1328 l 1.12109,-0.2402 z m 75.20117,0 c -1.49334,0.018 -2.98714,0.4074 -4.48047,1.1719 -1.49333,0.7644 -2.71969,1.7618 -3.67969,2.9882 -0.96,1.2089 -1.43945,2.4353 -1.43945,3.6797 0,0.6756 0.16808,1.2085 0.50586,1.5996 0.35555,0.3734 0.87132,0.5606 1.54687,0.5606 0.67556,0 1.3594,-0.17 2.05274,-0.5078 0.71111,-0.3378 1.54781,-0.9949 2.50781,-1.9727 l 0.98633,-1.0137 c -0.26667,0.7111 -0.40039,1.3243 -0.40039,1.8399 0,1.1022 0.52533,1.6543 1.57422,1.6543 0.55111,0 1.15472,-0.2407 1.8125,-0.7207 0.67551,-0.48 1.13783,-0.9862 1.38671,-1.5195 l -0.61328,-0.4532 c -0.0889,0.071 -0.20348,0.159 -0.3457,0.2657 l -0.32031,0.2402 c -0.0533,0.053 -0.12596,0.1067 -0.21485,0.1601 -0.0711,0.053 -0.13221,0.097 -0.18554,0.1329 l -0.16016,0.055 c -0.0533,0.018 -0.16792,0.025 -0.3457,0.025 -0.16,0 -0.33004,-0.08 -0.50782,-0.2402 -0.15996,-0.1778 -0.24023,-0.3898 -0.24023,-0.6387 0,-0.6044 0.55207,-2.018 1.6543,-4.2402 l -1.1211,-0.668 c -0.78222,1.5111 -1.76026,2.8273 -2.93359,3.9473 -1.17333,1.12 -2.15902,1.6797 -2.95898,1.6797 -0.85334,0 -1.2793,-0.5234 -1.2793,-1.5723 0,-1.0666 0.61318,-2.1345 1.83984,-3.2012 1.24445,-1.0666 2.67519,-1.7772 4.29297,-2.1328 l 1.11914,-0.2402 z m -113.67969,0.08 c -0.0533,0.1066 -0.24055,0.4619 -0.56055,1.0664 -1.42222,2.7733 -2.13281,5.0216 -2.13281,6.7461 0,1.3866 0.49663,2.0799 1.49219,2.08 0.56889,-10e-5 1.2012,-0.2846 1.89453,-0.8535 0.71111,-0.5866 1.27841,-1.2877 1.70508,-2.1054 l -0.53321,-0.4551 c -0.85329,0.96 -1.52,1.4414 -2,1.4414 -0.24888,0 -0.46089,-0.09 -0.63867,-0.2676 -0.17778,-0.1778 -0.26758,-0.47 -0.26758,-0.8789 0,-0.4267 0.26745,-1.378 0.80079,-2.8535 0.55111,-1.4756 1.01338,-2.551 1.38671,-3.2266 z" />
    <path
       id="text3-2"
       style="font-style:normal;font-variant:normal;font-weight:normal;font-stretch:normal;font-size:53.3333px;font-family:'Marck Script';-inkscape-font-specification:'Marck Script';text-align:center;text-anchor:middle;display:inline;opacity:1;fill:#000000;fill-opacity:1;stroke:none;stroke-width:1;stroke-linecap:butt;stroke-linejoin:round;stroke-dasharray:none;stroke-opacity:1"
       d="m 867.84609,710.17656 c -0.60416,0.0187 -1.28448,0.44942 -2.04102,1.29101 -0.75764,0.80605 -1.5607,1.91462 -2.40625,3.32813 -0.81001,1.41237 -1.63139,3.02174 -2.46484,4.82617 -0.79901,1.76779 -1.54248,3.60507 -2.23047,5.51172 l -1.17578,-0.0703 c -0.35649,-0.0245 -0.81981,-0.0637 -1.39063,-0.11718 l 0.0508,1.65234 c 0.32425,0.13225 0.64671,0.22984 0.96875,0.29102 0.35649,0.0245 0.66114,0.0675 0.91211,0.13086 -0.7814,2.33637 -1.42236,4.59775 -1.92382,6.7832 -0.0827,0.38769 -0.11309,0.70165 -0.17969,1.0664 -1.17581,2.16765 -2.36317,3.80898 -3.5625,4.87696 -1.47555,1.30724 -2.6396,1.97801 -3.49219,2.01367 -0.56839,0.0238 -0.98499,-0.15479 -1.25,-0.53516 -0.2665,-0.41589 -0.41037,-0.85458 -0.42969,-1.3164 -0.0253,-0.60392 0.0922,-1.23149 0.34961,-1.88282 0.29149,-0.6883 0.6184,-1.35984 0.98242,-2.01562 0.39807,-0.69279 0.72833,-1.31267 0.99024,-1.85742 0.29595,-0.58176 0.43673,-1.04905 0.42187,-1.4043 -0.0163,-0.39077 -0.20857,-0.70368 -0.57422,-0.9375 -0.36561,-0.23381 -0.7626,-0.39563 -1.19335,-0.48437 -0.39672,-0.12576 -0.66697,-0.20284 -0.81055,-0.23243 -0.17762,0.007 -0.31687,0.10308 -0.41602,0.28516 -0.63782,0.91634 -1.39157,2.0321 -2.26172,3.34961 -0.8716,1.28198 -1.79765,2.54986 -2.77734,3.80078 -0.94417,1.24943 -1.89691,2.30345 -2.85742,3.16211 -0.962,0.82314 -1.85091,1.25098 -2.66797,1.28516 -0.81706,0.0342 -1.24933,-0.51752 -1.29688,-1.6543 -0.0416,-0.99468 0.12574,-2.12163 0.5,-3.38281 0.3743,-1.26119 0.90709,-2.54737 1.59961,-3.85742 0.69105,-1.34561 1.47641,-2.57142 2.35547,-3.67579 0.91311,-1.14134 1.87107,-2.07101 2.87305,-2.78906 1.00198,-0.71805 1.99946,-1.09707 2.99414,-1.13867 0.92364,-0.0386 1.53969,0.22084 1.84766,0.77734 0.30796,0.55651 0.47614,1.18994 0.50586,1.90039 0.0149,0.35525 0.0536,0.27106 -0.004,0.59375 -0.0222,0.32121 -0.0263,0.15582 -0.084,0.47852 0.93104,0.13899 1.80185,0.59124 2.45898,0.13672 0.65714,-0.45452 0.79402,-0.86115 0.75391,-1.82031 -0.0535,-1.27888 -0.6301,-2.28648 -1.72852,-3.02344 -1.09842,-0.73697 -2.4119,-1.07365 -3.93945,-1.00977 -1.4565,0.0609 -2.89743,0.47665 -4.32422,1.24805 -1.42679,0.7714 -2.75453,1.7703 -3.98438,2.99609 -1.23133,1.19027 -2.31474,2.51594 -3.25,3.97852 -0.83121,1.29987 -1.46566,2.60806 -1.95898,3.92187 -0.51714,0.80541 -1.09488,1.5731 -1.73242,2.30469 -1.23647,1.45762 -2.59316,2.65483 -4.07227,3.5918 -1.44558,0.89949 -2.91522,1.39163 -4.40625,1.47461 -0.99401,0.0553 -1.78333,-0.0789 -2.37109,-0.40235 -0.58777,-0.32339 -1.02071,-0.7258 -1.29688,-1.20898 -0.27616,-0.48318 -0.46193,-0.93732 -0.55664,-1.35938 -0.0612,-0.4595 -0.0956,-0.77757 -0.10547,-0.95507 l -0.043,-0.7461 c 0.0139,-0.097 0.0286,-0.17512 0.043,-0.26172 0.0274,-0.71255 0.38918,-1.95095 0.57227,-2.39843 0.007,-0.0166 0.0146,-0.034 0.0215,-0.0508 0.32492,-1.05131 0.75916,-2.12464 1.33008,-3.22071 0.61129,-1.17355 1.3185,-2.24441 2.11914,-3.21484 0.79867,-1.00593 1.62655,-1.81815 2.48242,-2.43555 0.85393,-0.6529 1.6874,-1.00143 2.50391,-1.04687 0.31951,-0.0178 0.55517,0.0397 0.70508,0.17382 0.1499,0.1341 0.23608,0.39661 0.25781,0.78711 0.0553,0.99402 -0.22651,2.00751 -0.8457,3.03907 -0.62117,0.99605 -1.44136,1.93085 -2.46094,2.80664 -0.98408,0.8738 -2.03033,1.60935 -3.13672,2.20508 -0.23217,0.12501 -0.44218,0.20091 -0.66601,0.30664 -0.4224,0.59889 -0.69629,1.64243 -0.84571,2.36523 0.90137,-0.24845 1.7954,-0.54428 2.67774,-0.92187 1.56394,-0.69242 2.97612,-1.53517 4.23828,-2.53125 1.26215,-0.99612 2.25293,-2.10143 2.96875,-3.31641 0.71581,-1.21498 1.03601,-2.49864 0.96094,-3.84766 -0.079,-1.42002 -0.55785,-2.33591 -1.43555,-2.75 -0.84417,-0.45156 -1.72738,-0.65293 -2.65039,-0.60156 -1.63303,0.0909 -3.24066,0.66154 -4.82031,1.71094 -1.57969,1.04939 -2.99963,2.39223 -4.26172,4.02929 -1.26407,1.6016 -2.25493,3.3143 -2.97266,5.13477 -0.35373,0.9218 -0.60043,1.81109 -0.74805,2.67383 -0.5827,0.86701 -1.25173,1.71066 -2.02343,2.5293 -0.82851,0.87886 -1.68417,1.61714 -2.56836,2.21484 -0.88672,0.56223 -1.75628,0.87489 -2.60742,0.93555 -0.35466,0.0253 -0.67883,-0.0229 -0.97266,-0.14454 -0.2609,-0.1596 -0.40798,-0.48785 -0.44336,-0.98437 -0.048,-0.67385 0.12419,-1.4884 0.51953,-2.44336 0.39534,-0.95496 0.78665,-1.98133 1.17188,-3.07812 0.38523,-1.09683 0.54009,-2.15903 0.46679,-3.1875 -0.0809,-1.1349 -0.43025,-2.05543 -1.05078,-2.75977 -0.62052,-0.70434 -1.3214,-1.27726 -2.10156,-1.7207 -0.78016,-0.44345 -1.48509,-0.82113 -2.11328,-1.13282 -0.59525,-0.34968 -0.92306,-0.71787 -0.98633,-1.10546 0.0558,-0.21785 0.13709,-0.564 0.24609,-1.03516 0.14448,-0.47369 0.20991,-0.79924 0.19727,-0.97656 -0.0126,-0.17733 -0.14107,-0.48771 -0.38672,-0.9336 -0.21271,-0.48388 -0.53144,-0.71001 -0.95703,-0.67968 -0.53198,0.0379 -1.05318,0.48369 -1.5625,1.33984 -0.50932,0.85615 -0.73173,1.74586 -0.66602,2.66797 0.043,0.60291 0.25484,1.06905 0.63477,1.39844 -0.59566,2.14551 -1.23923,4.09889 -1.93359,5.85937 -0.29917,0.75846 -0.47828,1.14644 -0.72852,1.75586 l -0.0957,-0.0723 c -0.59998,2.01894 -1.47077,3.79474 -2.61524,5.32813 -1.14772,1.49799 -2.41289,2.70484 -3.79297,3.61719 -1.38004,0.91235 -2.74245,1.42908 -4.08789,1.55273 -1.48706,0.13667 -2.53273,-0.17782 -3.13867,-0.94336 -0.57378,-0.80419 -0.90694,-1.70198 -0.99805,-2.69336 -0.10737,-1.16841 0.0238,-2.46618 0.39258,-3.89258 0.40094,-1.46503 0.95189,-2.85393 1.65235,-4.16796 0.73261,-1.35272 1.54139,-2.46329 2.42578,-3.33008 0.91653,-0.90546 1.81601,-1.39717 2.70117,-1.47852 0.38947,-0.0358 0.6644,0.0274 0.82226,0.19141 0.15465,0.12861 0.2435,0.33394 0.26954,0.61719 0.0976,1.06215 -0.0161,1.94773 -0.34375,2.65625 -0.32765,0.70848 -0.657,1.20399 -0.98829,1.48437 0.4867,0.63367 1.06557,0.91925 1.73829,0.85742 0.81434,-0.0748 1.40947,-0.59377 1.78515,-1.55664 0.40784,-1.00152 0.56572,-1.99886 0.47461,-2.99023 -0.0911,-0.99138 -0.50699,-1.82611 -1.24805,-2.50782 -0.70561,-0.68493 -1.80199,-0.96088 -3.28906,-0.82421 -1.45166,0.13341 -2.84869,0.65535 -4.19336,1.56445 -1.30926,0.90584 -2.46916,2.08364 -3.47851,3.5332 -1.01261,1.41416 -1.77904,2.98502 -2.29883,4.71094 -0.51979,1.72592 -0.70046,3.4565 -0.54102,5.19141 0.21801,2.37219 0.9638,4.07008 2.23633,5.0957 1.31119,1.05777 2.88739,1.50319 4.72852,1.33398 1.80572,-0.16595 3.56664,-0.82903 5.28125,-1.98632 1.75327,-1.12518 3.29673,-2.58792 4.63086,-4.38868 0.73515,-0.98972 1.35857,-2.0414 1.88672,-3.14648 l 0.0312,0.0508 c 0.52959,-1.07147 1.20846,-2.54684 2.0371,-4.42383 0.86162,-1.91497 1.61463,-3.87465 2.25586,-5.88086 0.73459,0.30411 1.38657,0.72046 1.95899,1.25 0.56989,0.49408 0.88523,1.14914 0.94336,1.96485 0.0607,0.85117 -0.13621,1.84508 -0.58985,2.98242 -0.41817,1.13481 -0.83435,2.2887 -1.25,3.45898 -0.41564,1.17028 -0.58834,2.25111 -0.51757,3.24414 0.0834,1.17037 0.55619,2.06398 1.41992,2.67969 0.86625,0.65118 1.95535,0.92945 3.26758,0.83594 1.59592,-0.11373 3.14197,-0.68743 4.63671,-1.7207 1.37845,-0.98727 2.61456,-2.18639 3.72071,-3.58008 0.23711,1.47767 0.87083,2.71739 1.95312,3.68554 1.31167,1.17338 3.103,1.69676 5.375,1.57032 1.91703,-0.10669 3.75644,-0.65431 5.51758,-1.64258 1.79664,-0.99025 3.39476,-2.32536 4.79688,-4.00586 0.0208,-0.0243 0.0379,-0.0517 0.0586,-0.0762 -0.005,0.1929 -0.0153,0.38865 -0.008,0.57617 0.0654,1.56307 0.55772,2.71654 1.47851,3.46094 0.88528,0.74588 1.91363,1.09395 3.08594,1.04492 1.34993,-0.0565 2.59195,-0.60668 3.72266,-1.65039 1.16623,-1.0452 2.4238,-2.45024 3.77343,-4.21485 l 0.004,0.10743 0.006,0.16015 c 0.11562,1.06276 0.54971,2.04163 1.29883,2.93555 0.74912,0.89392 1.85014,1.30896 3.30664,1.24805 1.34993,-0.0565 2.66461,-0.53776 3.94336,-1.44532 1.28023,-0.87203 2.4765,-2.06087 3.58789,-3.5664 0.1623,-0.21858 0.31198,-0.4509 0.4668,-0.67774 -0.003,0.21045 -0.0135,0.43178 -0.008,0.62891 0.0583,1.88354 0.58217,3.27175 1.57032,4.16601 0.98811,0.8943 2.26443,1.31795 3.82812,1.26954 1.70585,-0.0528 3.34369,-0.6019 4.91211,-1.64649 1.56952,-1.00905 3.00313,-2.38714 4.30078,-4.13476 0.26714,-0.35042 0.51752,-0.71455 0.76563,-1.08008 -0.0255,0.3316 -0.0575,0.67256 -0.0508,0.95312 0.0316,1.31518 0.4497,2.4247 1.25391,3.33008 0.80421,0.90538 1.98875,1.34033 3.55274,1.30274 2.20377,-0.053 4.24352,-0.97386 6.12109,-2.76172 0.66958,-0.63759 1.27797,-1.39326 1.85742,-2.20508 0.0466,1.22093 0.36192,2.33092 0.95313,3.32812 0.6372,1.04743 1.75428,1.54567 3.35351,1.4961 1.59923,-0.0496 3.1647,-0.63147 4.69531,-1.7461 1.53064,-1.11462 2.87873,-2.40038 4.04297,-3.85937 0.39533,0.13003 0.82571,0.23974 1.29102,0.33203 0.4642,0.0567 0.92667,0.0788 1.38867,0.0644 1.24385,-0.0386 2.49208,-0.4867 3.74609,-1.34375 0.10801,-0.0749 0.20259,-0.17236 0.30664,-0.2539 -0.25951,0.85054 -0.52376,1.71539 -0.73828,2.39648 -0.33524,0.91143 -0.5146,1.45708 -0.53906,1.63672 0.46112,0.54134 1.00068,0.89878 1.61719,1.07422 0.61871,0.21093 1.2652,0.29579 1.93945,0.2539 0.60371,-1.17744 1.32177,-2.50369 2.15625,-3.98046 0.83448,-1.47681 1.72628,-2.90433 2.67383,-4.28125 0.98304,-1.37917 1.99773,-2.52919 3.04492,-3.44922 1.08047,-0.95773 2.15219,-1.46902 3.2168,-1.53516 0.49682,-0.0309 0.93388,0.10305 1.30859,0.40039 0.408,0.25965 0.63509,0.77983 0.6836,1.56055 0.0463,0.74523 -0.0289,1.5336 -0.22657,2.36523 l -0.59375,2.49414 c -0.1999,0.79615 -0.27651,1.54807 -0.23242,2.25782 0.0661,1.06461 0.47496,1.91283 1.22656,2.54296 0.78933,0.66345 1.87577,0.95317 3.25977,0.86719 1.41948,-0.0882 2.67123,-0.59338 3.75391,-1.51562 0.85229,-0.73314 1.62048,-1.62163 2.30859,-2.65625 0.16639,0.52006 0.37073,1.03425 0.63477,1.53711 0.56742,1.05192 1.41597,1.87866 2.54687,2.48242 1.16975,0.63568 2.63892,0.86858 4.4082,0.69531 1.62777,-0.15941 3.04346,-0.6558 4.24805,-1.48828 1.23998,-0.83595 2.072,-2.00739 2.49609,-3.51367 1.67082,-0.44943 3.08416,-1.33813 4.24024,-2.66602 1.15261,-1.36327 1.96663,-3.08706 2.4414,-5.16992 l -0.68359,-0.41406 c -0.77522,1.93365 -1.64721,3.42889 -2.61523,4.48828 -0.97149,1.024 -1.9913,1.73253 -3.06055,2.12305 0.0396,-0.32541 0.0598,-0.66807 0.0606,-1.02539 7.3e-4,-0.35733 -0.019,-0.74724 -0.0606,-1.17188 -0.15595,-1.59238 -0.5741,-3.12412 -1.25391,-4.59375 -0.64442,-1.47309 -1.29845,-2.85574 -1.96093,-4.14844 -0.63056,-1.33154 -0.9976,-2.52825 -1.10157,-3.58984 -0.0485,-0.49541 -0.0505,-0.88771 -0.008,-1.17774 0.0784,-0.29345 0.10681,-0.54549 0.0859,-0.75781 -0.0631,-0.27962 -0.21025,-0.5155 -0.44336,-0.70703 -0.19772,-0.19499 -0.50896,-0.27205 -0.93359,-0.23047 -0.63696,0.0624 -1.17484,0.41828 -1.61133,1.06836 -0.40458,0.61123 -0.53706,1.62557 -0.39844,3.04102 l 0.0527,0.52929 c -0.52678,1.55207 -1.20886,2.99409 -2.04296,4.32618 -0.74372,1.19889 -1.88433,2.60686 -1.99974,2.97177 -0.0617,0.19498 1.23116,0.98985 1.33958,0.96377 0.1815,-0.0437 0.95295,-1.46744 1.45312,-2.40429 0.72452,-1.35708 1.35134,-2.61607 1.88086,-3.77539 0.54866,1.58961 1.09499,3.14326 1.63672,4.6621 0.54173,1.51888 0.90828,3.07323 1.09961,4.66211 0.13589,1.38984 0.1948,5.33926 -3.46094,5.69727 -1.30926,0.12822 -2.35021,-0.28769 -3.12304,-1.24805 -0.77284,-0.96035 -1.21767,-2.02366 -1.33203,-3.1914 -0.0832,-0.84927 0.1185,-1.35119 0.60351,-1.50586 0.72012,0.78689 1.70372,1.53094 2.95117,2.23047 0.8942,0.50143 1.85065,0.86151 2.86524,1.09375 h 0.002 c 0.53696,-0.0668 0.93658,-1.47646 0.55078,-1.59571 -0.0148,-0.005 -0.0281,-0.009 -0.041,-0.0137 -1.06547,-0.25911 -2.0527,-0.67054 -2.95899,-1.24023 -0.90881,-0.53622 -1.67885,-1.25914 -2.41601,-1.99805 -0.57012,-0.78643 -1.48944,-1.74445 -2.32813,-1.24219 -0.31917,0.17341 -0.65727,0.39614 -1.02539,0.69727 -0.40038,0.28929 -0.71376,0.73031 -0.94141,1.32422 -0.20129,0.52525 -0.25259,1.24798 -0.19726,2.11132 -0.65106,1.06002 -1.34261,1.99557 -2.0918,2.7461 -0.87195,0.87352 -1.73229,1.33771 -2.58398,1.39062 -0.31939,0.0199 -0.62866,-0.0684 -0.92578,-0.26367 -0.26385,-0.23297 -0.41395,-0.63338 -0.44922,-1.20117 -0.0485,-0.78072 0.0614,-1.58974 0.33008,-2.42578 0.30416,-0.83825 0.60674,-1.72912 0.90429,-2.67383 0.29755,-0.94471 0.41185,-1.94906 0.34571,-3.01367 -0.0772,-1.24205 -0.51896,-2.35506 -1.32813,-3.33789 -0.77368,-0.98503 -1.92523,-1.42879 -3.45117,-1.33399 -1.20656,0.075 -2.39027,0.50437 -3.55274,1.28907 -1.12915,0.74701 -2.21043,1.7046 -3.24218,2.87304 -1.03176,1.16845 -1.96896,2.40184 -2.81446,3.70117 0.21776,-1.08221 0.37165,-2.0363 0.46289,-2.86132 0.12453,-0.86272 0.17295,-1.5058 0.14649,-1.93164 -0.0661,-1.06462 -0.71889,-1.55959 -1.96094,-1.48243 -0.56779,0.0353 -1.11033,0.21233 -1.625,0.5293 -0.47918,0.31476 -0.83368,0.62059 -1.06445,0.91992 0.0705,1.13559 -0.028,2.40646 -0.29688,3.8125 -0.14181,0.74156 -0.30134,1.46786 -0.47461,2.18164 -0.21119,0.27586 -0.43376,0.53567 -0.68359,0.76172 -0.69314,0.59065 -1.40984,1.02107 -2.14844,1.29297 -0.73859,0.27191 -1.37512,0.4171 -1.9082,0.43359 -0.56861,0.0176 -1.06888,-0.0734 -1.50195,-0.27343 0.91436,-1.48682 1.68404,-3.05915 2.30859,-4.71485 0.66009,-1.65677 0.97045,-3.14211 0.92969,-4.45703 -0.0364,-1.17277 -0.38856,-2.17667 -1.05469,-3.00976 -0.63059,-0.8342 -1.71013,-1.22706 -3.23828,-1.17969 -1.42154,0.0441 -2.54802,0.4347 -3.37891,1.17187 -0.79535,0.73611 -1.3732,1.59088 -1.73437,2.5625 -0.32564,0.97056 -0.47626,1.82792 -0.45313,2.57422 0.054,1.74139 0.34867,3.22666 0.88477,4.45508 0.38453,0.8574 0.93811,1.66237 1.65039,2.41797 0.62502,-0.72325 1.14804,-1.74911 1.36523,-2.38867 -0.13178,-0.30683 -0.26838,-0.60311 -0.37695,-0.96485 -0.28182,-1.05841 -0.4339,-1.96072 -0.45703,-2.70703 -0.0452,-1.45707 0.2721,-2.67663 0.95312,-3.6582 0.68103,-0.98157 1.35993,-1.48297 2.03516,-1.50391 0.49754,-0.0154 0.87583,0.16953 1.13672,0.55274 0.25979,0.34767 0.40239,0.92871 0.42773,1.74609 0.0375,1.20831 -0.22311,2.53435 -0.7832,3.97461 -0.56008,1.44027 -1.24814,2.7942 -2.0625,4.06445 l -0.002,-0.002 c -0.45702,0.85821 -1.52456,2.28993 -2.46289,3.04102 -0.48538,0.51645 -0.98369,1.00952 -1.50391,1.46093 -0.90086,0.77496 -1.68805,1.17243 -2.36328,1.19336 -0.67523,0.0209 -1.16231,-0.19525 -1.46094,-0.64843 -0.26309,-0.45429 -0.4057,-1.03728 -0.42773,-1.74805 -0.0231,-0.74631 0.0584,-1.56782 0.24414,-2.46289 0.18569,-0.89507 0.44254,-1.77278 0.77148,-2.63672 0.36338,-0.90058 0.74622,-1.74986 1.14844,-2.54492 0.34401,-0.87429 0.40257,-1.31895 0.50781,-2.31446 -2.1969,0.1435 -2.2716,0.21051 -3.16797,0.84961 -0.72757,0.62729 -1.39616,1.46714 -2.0039,2.51758 -0.57221,1.04935 -1.01606,2.18302 -1.33399,3.40235 -0.0347,0.12883 -0.0437,0.25453 -0.0742,0.38281 -0.92081,1.54776 -1.83174,2.76213 -2.72656,3.56055 -1.39275,1.24268 -2.69185,1.87719 -3.90039,1.90625 -0.78199,0.0188 -1.39108,-0.14309 -1.82617,-0.48829 -0.4004,-0.38159 -0.61523,-1.14185 -0.64258,-2.27929 -0.0282,-1.173 0.21048,-2.40482 0.71289,-3.69727 0.53711,-1.32884 1.14628,-2.6064 1.82813,-3.83203 0.71739,-1.22648 1.33083,-2.3091 1.84179,-3.24609 0.54651,-0.93785 0.81385,-1.63752 0.80274,-2.09961 -0.012,-0.49764 -0.17997,-0.8663 -0.50586,-1.10742 -0.32674,-0.27668 -0.70432,-0.41062 -1.13086,-0.4004 -0.782,0.0188 -1.55321,0.42968 -2.31641,1.23047 -0.76405,0.76525 -1.47091,1.75961 -2.11718,2.98438 -0.64631,1.22477 -1.2189,2.53646 -1.71875,3.93555 -0.3877,1.1357 -0.68446,2.22315 -0.92579,3.28125 -1.00865,1.69523 -2.13381,3.14406 -3.39453,4.30859 -1.79849,1.65644 -3.58635,2.51335 -5.36328,2.56836 -0.99508,0.0308 -1.73414,-0.24999 -2.21484,-0.83985 -0.48071,-0.58982 -0.74395,-1.61323 -0.78906,-3.07031 -0.0539,-1.74138 0.1578,-3.5265 0.63476,-5.35547 0.5114,-1.86557 1.11425,-3.68082 1.80664,-5.44531 l 0.32031,-0.01 0.31836,-0.01 c 1.49152,-0.0817 3.05408,-0.20019 4.68555,-0.35742 1.63147,-0.15723 3.42201,-0.35554 5.37109,-0.59375 l -0.0547,-1.75977 c -1.31053,0.18287 -2.60563,0.33072 -3.88282,0.44141 -1.24271,0.0741 -2.64529,0.13518 -4.20898,0.18359 l -0.79883,0.0254 -0.85351,0.0254 c 0.93346,-2.02093 1.90575,-3.91896 2.91796,-5.69336 1.01115,-1.8099 1.85143,-3.38377 2.52149,-4.7207 0.7056,-1.33803 1.0474,-2.36152 1.02539,-3.07226 -0.0154,-0.49754 -0.18612,-0.86661 -0.51367,-1.10547 -0.32865,-0.27441 -0.67001,-0.40554 -1.02539,-0.39453 z m 14.98633,3.84179 c -0.99527,0.0239 -1.94778,0.34813 -2.85743,0.97461 -0.90965,0.62649 -1.35254,1.36765 -1.33203,2.2207 0.0171,0.71091 0.29617,1.23745 0.83789,1.58008 0.57642,0.30624 1.2016,0.45179 1.87696,0.43555 0.95972,-0.0231 1.8413,-0.38311 2.64257,-1.07813 0.80045,-0.73052 1.19178,-1.46839 1.17383,-2.21484 -0.0179,-0.74645 -0.26154,-1.25604 -0.73047,-1.5293 -0.43338,-0.2741 -0.97154,-0.40405 -1.61132,-0.38867 z"
       transform="translate(-59.715228,507.23946)" />
  </g>
</svg>
